<svg width="1305" height="1287" viewBox="0 0 1305 1287" fill="none" xmlns="http://www.w3.org/2000/svg">
<path d="M236.629 460.63V751.93H337.079V734.48H255.829V460.63H236.629ZM572.029 751.93H592.979L472.029 451.93L349.279 751.93H370.279L409.129 656.28H533.129L572.029 751.93ZM416.129 638.83L471.579 500.83L526.179 638.83H416.129ZM638.379 460.63V751.93H657.629V460.63H638.379ZM752.379 751.93L778.129 517.88L892.579 762.43L1006.98 517.88L1032.73 751.93H1051.93L1018.78 450.63L892.579 720.03L766.329 450.63L733.179 751.93H752.379Z" fill="#292929"/>
<path d="M459.229 864.18H464.729L479.379 830.73L478.779 843.28V875.28H486.479L486.379 818.68H477.179L464.379 847.63L462.079 853.68L459.629 847.63L446.429 818.68H437.129V875.28H444.929V843.28L444.279 830.73L459.229 864.18ZM507.329 875.28H515.529L519.229 863.38H541.379L545.179 875.28H553.529L535.079 818.33H525.629L507.329 875.28ZM529.329 829.98L530.329 825.38L531.379 829.98L539.629 856.43H521.079L529.329 829.98ZM572.829 873.18C576.829 874.73 582.879 876.03 588.929 876.03C603.429 876.03 609.729 868.83 609.729 859.58C609.729 851.48 605.179 845.58 591.779 842.63C584.879 841.08 579.779 838.38 579.779 833.23C579.779 827.73 584.029 824.88 592.679 824.88C597.529 824.88 603.329 826.03 607.479 827.33V820.43C603.479 818.98 597.729 817.78 592.079 817.78C577.479 817.78 571.229 823.93 571.229 833.13C571.229 841.13 576.629 846.83 589.079 849.73C596.379 851.33 601.129 854.08 601.129 859.58C601.129 865.18 596.779 868.73 588.129 868.73C583.129 868.73 577.229 867.58 572.829 866.13V873.18ZM627.279 875.28H635.429L639.179 863.38H661.329L665.129 875.28H673.429L655.029 818.33H645.529L627.279 875.28ZM649.279 829.98L650.229 825.38L651.279 829.98L659.529 856.43H641.029L649.279 829.98ZM638.579 814.48H662.129V808.88H638.579V814.48ZM703.679 868.08L701.279 868.23L702.379 866.73L731.279 822.48V818.68H692.129V825.88H717.829L720.429 825.73L719.229 827.33L690.029 871.48V875.28H731.429V868.08H703.679ZM725.429 802.43H718.179L712.079 810.98L706.029 802.43H698.779L708.929 814.53H715.179L725.429 802.43ZM749.079 875.28H757.229L760.929 863.38H783.129L786.929 875.28H795.229L776.779 818.33H767.329L749.079 875.28ZM771.079 829.98L772.029 825.38L773.079 829.98L781.329 856.43H762.829L771.079 829.98ZM814.579 873.18C818.529 874.73 824.579 876.03 830.679 876.03C845.129 876.03 851.429 868.83 851.429 859.58C851.429 851.48 846.929 845.58 833.479 842.63C826.629 841.08 821.529 838.38 821.529 833.23C821.529 827.73 825.729 824.88 834.379 824.88C839.229 824.88 845.029 826.03 849.179 827.33V820.43C845.229 818.98 839.479 817.78 833.829 817.78C819.179 817.78 812.929 823.93 812.929 833.13C812.929 841.13 818.379 846.83 830.829 849.73C838.079 851.33 842.879 854.08 842.879 859.58C842.879 865.18 838.479 868.73 829.829 868.73C824.829 868.73 818.929 867.58 814.579 866.13V873.18Z" fill="#292929"/>
<path d="M1281.05 494.4C1250.68 354.571 1173.44 229.317 1062.13 139.399C950.826 49.4805 812.135 0.296948 669.046 0L665.446 0C774.433 0.667501 881.313 30.0898 975.287 85.2942C1069.26 140.499 1147 219.529 1200.65 314.4C1177.22 278.984 1150.28 246.017 1120.25 216C1018.73 114.26 885.215 50.6788 742.246 36C659.794 20.4837 575.064 21.6892 493.087 39.5451C411.109 57.401 333.554 91.5433 265.024 139.946C196.494 188.348 138.386 250.024 94.1487 321.314C49.9111 392.603 20.4455 472.053 7.5007 554.948C-5.44411 637.843 -1.60432 722.494 18.7922 803.876C39.1887 885.259 75.7262 961.715 126.236 1028.71C176.746 1095.7 240.2 1151.86 312.83 1193.86C385.461 1235.86 465.789 1262.84 549.046 1273.2C654.149 1295.35 763.182 1290.1 865.67 1257.95C968.158 1225.8 1060.66 1167.84 1134.29 1089.64C1207.91 1011.43 1260.19 915.607 1286.1 811.368C1312.02 707.128 1310.69 597.978 1282.25 494.4H1281.05ZM1103.45 1098C1039.92 1161.51 963.319 1210.4 878.971 1241.28C794.623 1272.16 704.557 1284.28 615.046 1276.8H613.846C469.491 1264.77 333.974 1202.33 231.046 1100.4L233.446 1102.8C317.057 1186.57 422.769 1244.84 538.246 1270.8C386.312 1249.55 247.678 1172.65 149.21 1055C50.7424 937.362 -0.547781 787.354 5.27951 634.052C11.1068 480.749 73.6366 335.068 180.751 225.24C287.866 115.413 431.937 49.2593 585.046 39.6C451.745 59.2848 328.396 121.59 233.446 217.2L231.046 219.6C289.264 161.861 358.41 116.309 434.44 85.6088C510.471 54.9083 591.859 39.675 673.846 40.8C827.721 53.9663 971.122 124.16 1075.91 237.607C1180.7 351.054 1239.31 499.565 1240.25 654V650.4C1240.37 524.371 1202.55 401.223 1131.7 296.99C1060.86 192.757 960.276 112.267 843.046 66C955.42 99.69 1055.91 164.61 1132.82 253.201C1209.72 341.792 1259.88 450.407 1277.45 566.4C1278.65 583.2 1279.85 601.2 1279.85 619.2C1280.08 700.514 1264.3 781.079 1233.4 856.295C1202.5 931.51 1157.09 999.903 1099.76 1057.57C1042.43 1115.23 974.301 1161.04 899.266 1192.38C824.232 1223.71 743.76 1239.96 662.446 1240.2C581.131 1240.44 500.567 1224.65 425.351 1193.76C350.136 1162.86 281.743 1117.44 224.078 1060.11C107.618 944.328 41.9234 787.022 41.446 622.8V626.4C40.6503 774.104 92.0753 917.338 186.639 1030.8C281.202 1144.27 412.821 1220.67 558.248 1246.51C703.676 1272.35 853.558 1245.97 981.422 1172.03C1109.29 1098.09 1206.91 981.336 1257.05 842.4C1227.52 938.881 1174.78 1026.65 1103.45 1098Z" fill="#222222"/>
</svg>
