<svg width="32" height="32" viewBox="0 0 32 32" fill="none" xmlns="http://www.w3.org/2000/svg">
<mask id="mask0_1_7" style="mask-type:alpha" maskUnits="userSpaceOnUse" x="0" y="0" width="32" height="32">
<rect width="32" height="32" fill="#D9D9D9"/>
</mask>
<g mask="url(#mask0_1_7)">
<path d="M16 7.99996C15.2667 7.99996 14.6389 7.73885 14.1167 7.21663C13.5944 6.6944 13.3333 6.06663 13.3333 5.33329C13.3333 4.59996 13.5944 3.97218 14.1167 3.44996C14.6389 2.92774 15.2667 2.66663 16 2.66663C16.7333 2.66663 17.3611 2.92774 17.8833 3.44996C18.4056 3.97218 18.6667 4.59996 18.6667 5.33329C18.6667 6.06663 18.4056 6.6944 17.8833 7.21663C17.3611 7.73885 16.7333 7.99996 16 7.99996ZM12 29.3333V12C10.6667 11.8888 9.31111 11.7222 7.93333 11.5C6.55556 11.2777 5.24444 11 4 10.6666L4.66667 7.99996C6.4 8.46663 8.24444 8.80551 10.2 9.01663C12.1556 9.22774 14.0889 9.33329 16 9.33329C17.9111 9.33329 19.8444 9.22774 21.8 9.01663C23.7556 8.80551 25.6 8.46663 27.3333 7.99996L28 10.6666C26.7556 11 25.4444 11.2777 24.0667 11.5C22.6889 11.7222 21.3333 11.8888 20 12V29.3333H17.3333V21.3333H14.6667V29.3333H12Z" fill="white"/>
</g>
</svg>
