<svg width="32" height="32" viewBox="0 0 32 32" fill="none" xmlns="http://www.w3.org/2000/svg">
<mask id="mask0_1_25" style="mask-type:alpha" maskUnits="userSpaceOnUse" x="0" y="0" width="32" height="32">
<rect width="32" height="32" fill="#D9D9D9"/>
</mask>
<g mask="url(#mask0_1_25)">
<path d="M23 16H25V13.7333L26.9667 14.8667L27.9667 13.1333L26 12L27.9667 10.8667L26.9667 9.13333L25 10.2667V8H23V10.2667L21.0333 9.13333L20.0333 10.8667L22 12L20.0333 13.1333L21.0333 14.8667L23 13.7333V16ZM2.66667 28C1.93333 28 1.30556 27.7389 0.783333 27.2167C0.261111 26.6944 0 26.0667 0 25.3333V6.66667C0 5.93333 0.261111 5.30556 0.783333 4.78333C1.30556 4.26111 1.93333 4 2.66667 4H29.3333C30.0667 4 30.6944 4.26111 31.2167 4.78333C31.7389 5.30556 32 5.93333 32 6.66667V25.3333C32 26.0667 31.7389 26.6944 31.2167 27.2167C30.6944 27.7389 30.0667 28 29.3333 28H2.66667ZM21.2 25.3333H29.3333V6.66667H2.66667V25.3333H2.8C3.73333 23.6667 5.02222 22.3611 6.66667 21.4167C8.31111 20.4722 10.0889 20 12 20C13.9111 20 15.6889 20.4722 17.3333 21.4167C18.9778 22.3611 20.2667 23.6667 21.2 25.3333ZM12 18.6667C13.1111 18.6667 14.0556 18.2778 14.8333 17.5C15.6111 16.7222 16 15.7778 16 14.6667C16 13.5556 15.6111 12.6111 14.8333 11.8333C14.0556 11.0556 13.1111 10.6667 12 10.6667C10.8889 10.6667 9.94444 11.0556 9.16667 11.8333C8.38889 12.6111 8 13.5556 8 14.6667C8 15.7778 8.38889 16.7222 9.16667 17.5C9.94444 18.2778 10.8889 18.6667 12 18.6667ZM6.06667 25.3333H17.9333C17.1778 24.4889 16.2833 23.8333 15.25 23.3667C14.2167 22.9 13.1333 22.6667 12 22.6667C10.8667 22.6667 9.78889 22.9 8.76667 23.3667C7.74445 23.8333 6.84444 24.4889 6.06667 25.3333ZM12 16C11.6222 16 11.3056 15.8722 11.05 15.6167C10.7944 15.3611 10.6667 15.0444 10.6667 14.6667C10.6667 14.2889 10.7944 13.9722 11.05 13.7167C11.3056 13.4611 11.6222 13.3333 12 13.3333C12.3778 13.3333 12.6944 13.4611 12.95 13.7167C13.2056 13.9722 13.3333 14.2889 13.3333 14.6667C13.3333 15.0444 13.2056 15.3611 12.95 15.6167C12.6944 15.8722 12.3778 16 12 16Z" fill="white"/>
</g>
</svg>
