<svg width="33" height="33" viewBox="0 0 33 33" fill="none" xmlns="http://www.w3.org/2000/svg">
<mask id="mask0_1_19" style="mask-type:alpha" maskUnits="userSpaceOnUse" x="0" y="0" width="33" height="33">
<rect x="0.883942" y="0.0933838" width="32" height="32" fill="#D9D9D9"/>
</mask>
<g mask="url(#mask0_1_19)">
<path d="M20.8839 28.0934C18.2617 28.0934 15.9284 27.3489 13.8839 25.8601C11.8395 24.3712 10.3951 22.4489 9.55061 20.0934H4.88394V17.4267H8.95061C8.88394 16.8934 8.85616 16.3989 8.86728 15.9434C8.87839 15.4878 8.90616 15.0934 8.95061 14.7601H4.88394V12.0934H9.55061C10.3951 9.73783 11.8395 7.81561 13.8839 6.32672C15.9284 4.83783 18.2617 4.09338 20.8839 4.09338C22.4173 4.09338 23.8673 4.36561 25.2339 4.91005C26.6006 5.45449 27.8173 6.20449 28.8839 7.16005L26.9839 9.02672C26.1617 8.31561 25.2339 7.76005 24.2006 7.36005C23.1673 6.96005 22.0617 6.76005 20.8839 6.76005C18.9951 6.76005 17.3062 7.25449 15.8173 8.24338C14.3284 9.23227 13.2062 10.5156 12.4506 12.0934H20.8839V14.7601H11.6506C11.5617 15.3601 11.5284 15.8878 11.5506 16.3434C11.5728 16.7989 11.6062 17.1601 11.6506 17.4267H20.8839V20.0934H12.4506C13.2062 21.6712 14.3284 22.9545 15.8173 23.9434C17.3062 24.9323 18.9951 25.4267 20.8839 25.4267C22.0617 25.4267 23.1673 25.2267 24.2006 24.8267C25.2339 24.4267 26.1617 23.8712 26.9839 23.1601L28.8839 25.0267C27.8173 25.9823 26.6006 26.7323 25.2339 27.2767C23.8673 27.8212 22.4173 28.0934 20.8839 28.0934Z" fill="white"/>
</g>
</svg>
