<svg width="32" height="32" viewBox="0 0 32 32" fill="none" xmlns="http://www.w3.org/2000/svg">
<mask id="mask0_1_13" style="mask-type:alpha" maskUnits="userSpaceOnUse" x="0" y="0" width="32" height="32">
<rect width="32" height="32" fill="#D9D9D9"/>
</mask>
<g mask="url(#mask0_1_13)">
<path d="M9.33332 24H12V21.3333H14.6667V18.6666H12V16H9.33332V18.6666H6.66666V21.3333H9.33332V24ZM17.3333 19.3333H25.3333V17.3333H17.3333V19.3333ZM17.3333 23.3333H22.6667V21.3333H17.3333V23.3333ZM5.33332 29.3333C4.59999 29.3333 3.97221 29.0722 3.44999 28.55C2.92777 28.0277 2.66666 27.4 2.66666 26.6666V12C2.66666 11.2666 2.92777 10.6388 3.44999 10.1166C3.97221 9.5944 4.59999 9.33329 5.33332 9.33329H12V5.33329C12 4.59996 12.2611 3.97218 12.7833 3.44996C13.3055 2.92774 13.9333 2.66663 14.6667 2.66663H17.3333C18.0667 2.66663 18.6944 2.92774 19.2167 3.44996C19.7389 3.97218 20 4.59996 20 5.33329V9.33329H26.6667C27.4 9.33329 28.0278 9.5944 28.55 10.1166C29.0722 10.6388 29.3333 11.2666 29.3333 12V26.6666C29.3333 27.4 29.0722 28.0277 28.55 28.55C28.0278 29.0722 27.4 29.3333 26.6667 29.3333H5.33332ZM5.33332 26.6666H26.6667V12H20C20 12.7333 19.7389 13.3611 19.2167 13.8833C18.6944 14.4055 18.0667 14.6666 17.3333 14.6666H14.6667C13.9333 14.6666 13.3055 14.4055 12.7833 13.8833C12.2611 13.3611 12 12.7333 12 12H5.33332V26.6666ZM14.6667 12H17.3333V5.33329H14.6667V12Z" fill="white"/>
</g>
</svg>
